<?xml version="1.0" encoding="utf-8"?>
<!-- Generator: Adobe Illustrator 22.0.0, SVG Export Plug-In . SVG Version: 6.00 Build 0)  -->
<svg version="1.1" id="图层_1" xmlns="http://www.w3.org/2000/svg" xmlns:xlink="http://www.w3.org/1999/xlink" x="0px" y="0px"
	 viewBox="0 0 20 20" style="enable-background:new 0 0 20 20;" xml:space="preserve">
<title>joinlist</title>
<desc>Created with Sketch.</desc>
<path d="M10,1c-5,0-9,4-9,9s4,9,9,9s9-4,9-9S15,1,10,1z M3,10V9h7.3L8.7,7.4l0.7-0.7l2.5,2.5c0.2,0.2,0.2,0.5,0,0.7l-2.5,2.5
	l-0.7-0.7l1.6-1.7H3z M15,13.5c0,0.8-0.7,1.5-1.5,1.5h-7C5.7,15,5,14.3,5,13.5V12h1v1.5C6,13.8,6.2,14,6.5,14h7
	c0.3,0,0.5-0.2,0.5-0.5v-8C14,5.2,13.8,5,13.5,5h-7C6.2,5,6,5.2,6,5.5V7H5V5.5C5,4.7,5.7,4,6.5,4h7C14.3,4,15,4.7,15,5.5V13.5z"/>
</svg>
