<?xml version="1.0" encoding="utf-8"?>
<!-- Generator: Adobe Illustrator 22.0.0, SVG Export Plug-In . SVG Version: 6.00 Build 0)  -->
<svg version="1.1" id="图层_1" xmlns="http://www.w3.org/2000/svg" xmlns:xlink="http://www.w3.org/1999/xlink" x="0px" y="0px"
	 viewBox="0 0 20 20" style="enable-background:new 0 0 20 20;" xml:space="preserve">
<style type="text/css">
	.st0{fill:#FFFFFF;stroke:#000000;stroke-miterlimit:10;}
</style>
<title>undone</title>
<desc>Created with Sketch.</desc>
<path d="M10,1c-5,0-9,4-9,9s4,9,9,9s9-4,9-9S15,1,10,1z M11.4,15.3l-0.5,0.1l-0.3-1l0.5-0.1c2.4-0.6,3.8-3.1,3.2-5.5
	C13.7,6.4,11.2,5,8.8,5.7C7.7,6,6.7,6.7,6.1,7.8c-0.5,0.9-0.7,2-0.5,3l1.2-1.2l0.7,0.7l-2.1,2.1c-0.1,0.1-0.2,0.1-0.4,0.1
	s-0.3,0-0.4-0.1l-2-2.2l0.7-0.7l1.3,1.3c-0.2-1.2,0-2.5,0.6-3.6C6,6,7.2,5.1,8.6,4.7c2.9-0.8,6,1,6.7,3.9
	C16.1,11.5,14.4,14.5,11.4,15.3z"/>
<path class="st0" d="M4.2,7.8"/>
</svg>
